<svg id="Icon_Set" enable-background="new 0 0 64 64" height="512" viewBox="0 0 64 64" width="512" xmlns="http://www.w3.org/2000/svg"><path d="m44 59h-38c-.552 0-1-.448-1-1v-37h40v37c0 .552-.448 1-1 1z" fill="#99a2b9"/><path d="m44 59.5h-38c-.827 0-1.5-.673-1.5-1.5v-37c0-.276.224-.5.5-.5h40c.276 0 .5.224.5.5v37c0 .827-.673 1.5-1.5 1.5zm-38.5-38v36.5c0 .276.224.5.5.5h38c.276 0 .5-.224.5-.5v-36.5z" fill="#212a41"/><path d="m45 21h-40c-.552 0-1-.448-1-1v-8c0-.552.448-1 1-1h40c.552 0 1 .448 1 1v8c0 .552-.448 1-1 1z" fill="#99a2b9"/><path d="m45 21.5h-40c-.827 0-1.5-.673-1.5-1.5v-8c0-.827.673-1.5 1.5-1.5h40c.827 0 1.5.673 1.5 1.5v8c0 .827-.673 1.5-1.5 1.5zm-40-10c-.276 0-.5.224-.5.5v8c0 .276.224.5.5.5h40c.276 0 .5-.224.5-.5v-8c0-.276-.224-.5-.5-.5z" fill="#212a41"/><path d="m58 59h-38c-.552 0-1-.448-1-1v-37h40v37c0 .552-.448 1-1 1z" fill="#b7c0d7"/><path d="m58 59.5h-38c-.827 0-1.5-.673-1.5-1.5v-37c0-.276.224-.5.5-.5h40c.276 0 .5.224.5.5v37c0 .827-.673 1.5-1.5 1.5zm-38.5-38v36.5c0 .276.224.5.5.5h38c.276 0 .5-.224.5-.5v-36.5z" fill="#212a41"/><path d="m59 21h-40c-.552 0-1-.448-1-1v-8c0-.552.448-1 1-1h40c.552 0 1 .448 1 1v8c0 .552-.448 1-1 1z" fill="#b7c0d7"/><path d="m59 21.5h-40c-.827 0-1.5-.673-1.5-1.5v-8c0-.827.673-1.5 1.5-1.5h40c.827 0 1.5.673 1.5 1.5v8c0 .827-.673 1.5-1.5 1.5zm-40-10c-.276 0-.5.224-.5.5v8c0 .276.224.5.5.5h40c.276 0 .5-.224.5-.5v-8c0-.276-.224-.5-.5-.5z" fill="#212a41"/><path d="m39.905 29.686 2.576 5.489c.142.302.425.513.754.564l5.841.892c.805.123 1.133 1.104.565 1.687l-4.288 4.395c-.222.227-.322.546-.271.859l1.004 6.153c.134.824-.74 1.44-1.471 1.036l-5.13-2.836c-.301-.166-.667-.166-.968 0l-5.13 2.836c-.731.404-1.605-.212-1.471-1.036l1.004-6.153c.051-.313-.05-.632-.271-.859l-4.288-4.395c-.568-.583-.24-1.564.565-1.687l5.841-.892c.33-.05.613-.262.754-.564l2.576-5.489c.358-.766 1.448-.766 1.808 0z" fill="#f9ac2f"/><path d="m45.099 51.388c-.249 0-.498-.062-.727-.189l-5.13-2.836c-.152-.084-.332-.084-.484 0l-5.13 2.836c-.506.28-1.116.247-1.589-.086s-.71-.896-.617-1.468l1.004-6.153c.025-.156-.025-.316-.136-.43l-4.289-4.396c-.395-.404-.528-.988-.349-1.523s.638-.921 1.196-1.007l5.84-.892c.166-.025.307-.131.377-.282l2.576-5.489c.25-.532.77-.863 1.358-.863s1.108.331 1.358.863l2.576 5.489c.071.151.212.256.377.282l5.841.892c.558.085 1.017.471 1.196 1.007s.046 1.119-.349 1.523l-4.289 4.396c-.11.113-.161.274-.136.43l1.004 6.152c.093.572-.143 1.134-.617 1.468-.258.184-.559.276-.861.276zm-6.099-21.777c-.075 0-.327.021-.453.288l-2.576 5.489c-.213.454-.636.77-1.132.845l-5.839.892c-.189.029-.338.155-.399.336s-.017.371.116.508l4.289 4.396c.331.339.483.82.407 1.289l-1.004 6.153c-.032.193.045.376.206.489.159.112.358.124.53.029l5.13-2.836c.455-.251.998-.25 1.451 0l5.13 2.836c.171.094.37.083.53-.029.161-.113.237-.296.206-.489l-1.004-6.153c-.076-.469.077-.95.407-1.289l4.289-4.396c.133-.137.177-.327.116-.508s-.21-.307-.399-.336l-5.84-.892c-.496-.076-.918-.392-1.131-.845l-2.576-5.489c-.127-.267-.379-.288-.454-.288z" fill="#212a41"/><path d="m31.149 38.814c-.243 0-.456-.177-.494-.424-.042-.273.146-.528.418-.57l3.917-.598c.827-.126 1.532-.653 1.886-1.409l1.671-3.56c.117-.249.413-.358.665-.24.25.117.357.415.24.665l-1.671 3.56c-.497 1.059-1.483 1.796-2.64 1.973l-3.917.598c-.025.003-.05.005-.075.005z" fill="#ffca4d"/><path d="m55 26h-10v-12l5-4 5 4z" fill="#e0e0e0"/><g fill="#212a41"><path d="m55 26.5h-10c-.276 0-.5-.224-.5-.5v-12c0-.152.069-.295.188-.391l5-4c.183-.146.442-.146.625 0l5 4c.118.096.187.239.187.391v12c0 .276-.224.5-.5.5zm-9.5-1h9v-11.26l-4.5-3.6-4.5 3.6z"/><path d="m50 13.5c-.276 0-.5-.224-.5-.5v-4c0-1.93-1.57-3.5-3.5-3.5s-3.5 1.57-3.5 3.5v2c0 .276-.224.5-.5.5s-.5-.224-.5-.5v-2c0-2.481 2.019-4.5 4.5-4.5s4.5 2.019 4.5 4.5v4c0 .276-.224.5-.5.5z"/><path d="m52 23.5h-4c-.276 0-.5-.224-.5-.5s.224-.5.5-.5h4c.276 0 .5.224.5.5s-.224.5-.5.5z"/></g><circle cx="50" cy="17.5" fill="#f9ac2f" r="2"/><path d="m50 20c-1.378 0-2.5-1.122-2.5-2.5s1.122-2.5 2.5-2.5 2.5 1.122 2.5 2.5-1.122 2.5-2.5 2.5zm0-4c-.827 0-1.5.673-1.5 1.5s.673 1.5 1.5 1.5 1.5-.673 1.5-1.5-.673-1.5-1.5-1.5z" fill="#212a41"/><path d="m21 57.5c-.276 0-.5-.224-.5-.5v-34c0-.276.224-.5.5-.5s.5.224.5.5v34c0 .276-.224.5-.5.5z" fill="#d5def5"/><path d="m7 57.5c-.276 0-.5-.224-.5-.5v-34c0-.276.224-.5.5-.5s.5.224.5.5v34c0 .276-.224.5-.5.5z" fill="#b7c0d7"/><path d="m17 57.5c-.276 0-.5-.224-.5-.5v-34c0-.276.224-.5.5-.5s.5.224.5.5v34c0 .276-.224.5-.5.5z" fill="#7b849b"/><path d="m57 57.5c-.276 0-.5-.224-.5-.5v-34c0-.276.224-.5.5-.5s.5.224.5.5v34c0 .276-.224.5-.5.5z" fill="#99a2b9"/><path d="m20 19.5c-.276 0-.5-.224-.5-.5v-6c0-.276.224-.5.5-.5s.5.224.5.5v6c0 .276-.224.5-.5.5z" fill="#d5def5"/><path d="m6 19.5c-.276 0-.5-.224-.5-.5v-6c0-.276.224-.5.5-.5s.5.224.5.5v6c0 .276-.224.5-.5.5z" fill="#b7c0d7"/><path d="m16 19.5c-.276 0-.5-.224-.5-.5v-6c0-.276.224-.5.5-.5s.5.224.5.5v6c0 .276-.224.5-.5.5z" fill="#7b849b"/><path d="m58 19.5c-.276 0-.5-.224-.5-.5v-6c0-.276.224-.5.5-.5s.5.224.5.5v6c0 .276-.224.5-.5.5z" fill="#99a2b9"/><path d="m43.779 48.515c-.083 0-.167-.021-.242-.062l-3.327-1.839c-.242-.133-.33-.438-.196-.679.133-.242.438-.33.679-.196l2.426 1.341-.506-3.104c-.044-.272.141-.53.413-.574.278-.045.53.141.574.413l.672 4.12c.031.189-.049.379-.206.489-.085.06-.186.091-.287.091z" fill="#db8e11"/></svg>